<svg width="1200" height="800" viewBox="0 0 1200 800" fill="none" xmlns="http://www.w3.org/2000/svg">
  <rect width="1200" height="800" fill="#090C16"/>
  <path d="M0 594C146 543 282 522 438 548C595 574 740 643 893 633C1047 623 1122 553 1200 537V800H0V594Z" fill="url(#paint0_linear)"/>
  <path d="M0 686C180 632 345 629 516 651C687 673 838 728 1200 664V800H0V686Z" fill="url(#paint1_linear)"/>
  <path d="M612 518L732 461L854 531L730 596L612 518Z" fill="#12182A" stroke="#60A5FA" stroke-opacity="0.45" stroke-width="4"/>
  <path d="M730 596V674L852 604V531L730 596Z" fill="#0A0F1F"/>
  <path d="M612 518V590L730 674V596L612 518Z" fill="#10162A"/>
  <path d="M630 521L731 474L833 532L731 591L630 521Z" stroke="#E2E8F0" stroke-opacity="0.6" stroke-width="3"/>
  <circle cx="731" cy="276" r="105" fill="#10172A"/>
  <path d="M655 275L731 232L806 275L731 320L655 275Z" fill="#1E293B" stroke="#E2E8F0" stroke-opacity="0.65" stroke-width="3"/>
  <path d="M655 275V322L731 366V320L655 275Z" fill="#0F172A"/>
  <path d="M806 275V322L731 366V320L806 275Z" fill="#131A2B"/>
  <path d="M731 366L852 531" stroke="#60A5FA" stroke-width="4" stroke-opacity="0.8"/>
  <path d="M731 366L612 518" stroke="#8B5CF6" stroke-width="4" stroke-opacity="0.7"/>
  <rect x="522" y="185" width="170" height="64" rx="28" fill="#0B1020" stroke="#E2E8F0" stroke-opacity="0.25"/>
  <text x="558" y="226" fill="#E2E8F0" font-family="Arial, sans-serif" font-size="30" font-weight="700">NAV</text>
  <defs>
    <linearGradient id="paint0_linear" x1="600" y1="537" x2="600" y2="800" gradientUnits="userSpaceOnUse">
      <stop stop-color="#60A5FA"/>
      <stop offset="1" stop-color="#111827"/>
    </linearGradient>
    <linearGradient id="paint1_linear" x1="600" y1="651" x2="600" y2="800" gradientUnits="userSpaceOnUse">
      <stop stop-color="#7C3AED"/>
      <stop offset="1" stop-color="#1F2937"/>
    </linearGradient>
  </defs>
</svg>
